<svg height='100px' width='100px'  fill="#000000" xmlns:dc="http://purl.org/dc/elements/1.1/" xmlns:cc="http://creativecommons.org/ns#" xmlns:rdf="http://www.w3.org/1999/02/22-rdf-syntax-ns#" xmlns:svg="http://www.w3.org/2000/svg" xmlns="http://www.w3.org/2000/svg" xmlns:sodipodi="http://sodipodi.sourceforge.net/DTD/sodipodi-0.dtd" xmlns:inkscape="http://www.inkscape.org/namespaces/inkscape" viewBox="0 0 8.4666667 8.4666669" version="1.1" x="0px" y="0px"><svg:g><svg:path style="color:#000000;font-style:normal;font-variant:normal;font-weight:normal;font-stretch:normal;font-size:medium;line-height:normal;font-family:sans-serif;font-variant-ligatures:normal;font-variant-position:normal;font-variant-caps:normal;font-variant-numeric:normal;font-variant-alternates:normal;font-feature-settings:normal;text-indent:0;text-align:start;text-decoration:none;text-decoration-line:none;text-decoration-style:solid;text-decoration-color:#000000;letter-spacing:normal;word-spacing:normal;text-transform:none;writing-mode:lr-tb;direction:ltr;text-orientation:mixed;dominant-baseline:auto;baseline-shift:baseline;text-anchor:start;white-space:normal;shape-padding:0;clip-rule:nonzero;display:inline;overflow:visible;visibility:visible;opacity:1;isolation:auto;mix-blend-mode:normal;color-interpolation:sRGB;color-interpolation-filters:linearRGB;solid-color:#000000;solid-opacity:1;vector-effect:none;fill:#000000;fill-opacity:1;fill-rule:nonzero;stroke:none;stroke-width:0.52916664;stroke-linecap:round;stroke-linejoin:round;stroke-miterlimit:4;stroke-dasharray:none;stroke-dashoffset:0;stroke-opacity:1;color-rendering:auto;image-rendering:auto;shape-rendering:auto;text-rendering:auto;enable-background:accumulate" d="m 2.4908047,1.7921229 c -0.5102992,0 -0.9296585,0.419358 -0.9296585,0.929659 0,0.5103 0.4193593,0.929659 0.9296585,0.929659 0.5103019,0 0.9296585,-0.419359 0.9296585,-0.929659 0,-0.510301 -0.4193566,-0.929659 -0.9296585,-0.929659 z m 3.4845413,0 c -0.5103019,0 -0.9296585,0.419358 -0.9296585,0.929659 0,0.5103 0.4193566,0.929659 0.9296585,0.929659 0.5102992,0 0.9296585,-0.419359 0.9296585,-0.929659 0,-0.510301 -0.4193593,-0.929659 -0.9296585,-0.929659 z m -5.22965355,1.136365 a 0.26460979,0.26460979 0 0 0 -0.0279056,0.0021 0.26460979,0.26460979 0 0 0 -0.15658042,0.07596 l -0.48420866,0.484726 a 0.26460979,0.26460979 0 0 0 0,0.374653 l 1.29708013,1.297079 v 1.245919 a 0.26460979,0.26460979 0 0 0 0.2635488,0.265617 h 1.7048056 a 0.26460979,0.26460979 0 0 0 0.2656152,-0.265617 v -1.245919 l 0.6252872,-0.624768 0.6247659,0.624768 v 1.245919 a 0.26460979,0.26460979 0 0 0 0.2656178,0.265617 h 1.7032552 a 0.26460979,0.26460979 0 0 0 0.2656179,-0.265617 v -1.245919 l 1.2970774,-1.297079 a 0.26460979,0.26460979 0 0 0 0,-0.374653 L 7.9049443,3.0065189 a 0.26460979,0.26460979 0 0 0 -0.3746553,0 L 6.7174202,3.8193899 H 5.2332718 L 4.9051276,3.4912449 4.4209189,3.0065189 a 0.26460979,0.26460979 0 0 0 -0.3751712,0 L 3.5615391,3.4912449 3.2333949,3.8193899 H 1.7487305 L 0.93637766,3.0065189 a 0.26460979,0.26460979 0 0 0 -0.19068521,-0.07803 z"></svg:path></svg:g></svg>