<?xml version="1.0" encoding="UTF-8"?>
<svg width="700pt" height="700pt" version="1.1" viewBox="0 0 700 700" xmlns="http://www.w3.org/2000/svg">
 <path d="m234.75 118.54c-33.754 0-61.488 27.738-61.488 61.488 0 33.754 27.738 61.488 61.488 61.488 33.754 0 61.488-27.738 61.488-61.488 0-33.754-27.738-61.488-61.488-61.488zm230.47 0c-33.754 0-61.488 27.738-61.488 61.488 0 33.754 27.738 61.488 61.488 61.488 33.754 0 61.488-27.738 61.488-61.488 0-33.754-27.738-61.488-61.488-61.488zm-345.9 75.16c-0.61719 0.011719-1.2305 0.058594-1.8438 0.14063-3.9219 0.45703-7.5703 2.2266-10.355 5.0234l-32.027 32.062v-0.003906c-3.293 3.2852-5.1406 7.7422-5.1406 12.391 0 4.6484 1.8477 9.1055 5.1406 12.391l85.793 85.793v82.406h-0.003907c-0.015624 4.6406 1.8086 9.0977 5.0781 12.395 3.2695 3.293 7.7148 5.1523 12.355 5.1719h112.76c4.6641 0.019531 9.1445-1.8281 12.441-5.125 3.3008-3.2969 5.1445-7.7773 5.125-12.441v-82.406l41.359-41.324 41.324 41.324v82.406c-0.019531 4.6641 1.8281 9.1445 5.125 12.441s7.7773 5.1445 12.441 5.125h112.66c4.6641 0.019531 9.1445-1.8281 12.445-5.125 3.2969-3.2969 5.1406-7.7773 5.125-12.441v-82.406l85.789-85.793c3.293-3.2852 5.1406-7.7422 5.1406-12.391 0-4.6484-1.8477-9.1055-5.1406-12.391l-32.059-32.062c-3.2852-3.2891-7.7422-5.1406-12.391-5.1406-4.6484 0-9.1055 1.8516-12.391 5.1406l-53.766 53.766h-98.164l-21.703-21.703-32.027-32.062c-3.2852-3.3008-7.75-5.1562-12.406-5.1562s-9.1211 1.8555-12.406 5.1562l-32.027 32.062-21.703 21.703h-98.199l-53.73-53.766c-3.3359-3.3516-7.8828-5.2148-12.613-5.1602z"/>
</svg>
