<?xml version="1.0" standalone="no"?>
<!DOCTYPE svg PUBLIC "-//W3C//DTD SVG 20010904//EN"
 "http://www.w3.org/TR/2001/REC-SVG-20010904/DTD/svg10.dtd">
<svg version="1.0" xmlns="http://www.w3.org/2000/svg"
 width="2547.000000pt" height="2547.000000pt" viewBox="0 0 2547.000000 2547.000000"
 preserveAspectRatio="xMidYMid meet">
<metadata>
Created by potrace 1.14, written by Peter Selinger 2001-2017
</metadata>
<g transform="translate(0.000000,2547.000000) scale(0.100000,-0.100000)"
fill="#000000" stroke="none">
<path d="M7449 20656 c-2 -2 -33 -7 -69 -10 -36 -4 -92 -11 -125 -16 -33 -5
-77 -11 -99 -15 -21 -3 -82 -16 -135 -30 -405 -104 -717 -256 -1053 -516 -109
-84 -362 -334 -428 -424 -25 -33 -47 -62 -50 -65 -18 -16 -110 -149 -110 -158
0 -6 -4 -12 -8 -14 -29 -12 -199 -339 -256 -493 -21 -55 -42 -109 -47 -120
-12 -29 -72 -256 -85 -325 -2 -14 -7 -36 -9 -50 -45 -237 -54 -607 -20 -840 3
-19 7 -51 10 -70 6 -46 18 -111 29 -155 6 -29 26 -107 32 -130 3 -11 6 -24 8
-30 2 -8 27 -91 41 -135 1 -3 5 -14 10 -25 4 -11 23 -60 43 -110 32 -84 95
-221 117 -255 5 -8 10 -21 11 -28 2 -8 9 -21 16 -30 8 -10 41 -60 73 -112 32
-52 60 -97 64 -100 3 -3 20 -25 36 -50 17 -25 35 -50 40 -57 6 -6 33 -41 60
-77 43 -57 264 -281 350 -357 79 -69 287 -217 365 -261 25 -14 72 -41 105 -60
219 -124 592 -259 780 -282 17 -2 46 -6 65 -10 69 -12 96 -16 160 -22 36 -3
76 -7 90 -10 33 -6 384 -6 401 0 8 3 43 7 79 10 81 8 108 12 245 37 378 69
783 251 1096 489 25 19 61 46 79 60 97 72 312 287 419 421 74 91 206 283 247
359 10 19 21 37 24 40 11 11 141 283 139 293 0 1 5 16 11 32 61 166 65 178
108 345 73 278 95 654 57 950 -22 171 -29 209 -66 355 -48 188 -95 315 -182
495 -28 58 -51 107 -51 110 -1 3 -28 49 -61 103 -33 54 -65 107 -71 117 -6 11
-20 32 -31 47 -12 15 -47 61 -77 102 -121 162 -321 366 -466 480 -47 36 -86
69 -88 73 -2 5 -8 8 -14 8 -6 0 -33 18 -60 40 -28 22 -56 40 -63 40 -8 0 -15
4 -17 9 -9 25 -478 265 -478 244 0 -3 -6 -1 -13 5 -7 6 -35 18 -62 27 -28 9
-59 20 -70 25 -36 17 -338 88 -420 99 -44 6 -96 14 -115 17 -39 6 -505 15
-511 10z"/>
<path d="M17678 20655 c-2 -1 -34 -5 -71 -9 -145 -14 -280 -39 -437 -81 -127
-34 -386 -127 -404 -145 -6 -6 -15 -10 -21 -10 -44 0 -475 -265 -561 -345 -6
-5 -38 -32 -70 -60 -96 -80 -269 -257 -344 -352 -8 -10 -32 -39 -52 -65 -21
-25 -38 -51 -38 -56 0 -6 -4 -12 -9 -14 -10 -3 -100 -137 -132 -193 -85 -154
-111 -205 -152 -300 -27 -60 -53 -119 -58 -130 -27 -59 -102 -324 -123 -440
-40 -214 -50 -316 -50 -520 1 -130 10 -294 19 -340 2 -11 7 -41 10 -66 25
-213 129 -544 248 -789 54 -111 181 -326 207 -350 3 -3 21 -27 39 -55 19 -27
38 -52 41 -55 4 -3 11 -12 16 -21 26 -47 245 -278 359 -379 65 -58 252 -200
263 -200 6 0 12 -4 14 -8 5 -14 191 -124 308 -182 167 -84 464 -192 588 -214
15 -2 63 -11 107 -20 44 -8 103 -18 130 -21 28 -3 64 -8 80 -10 98 -13 156
-16 295 -15 85 0 173 2 195 5 22 2 65 7 95 10 104 11 145 16 160 20 8 3 33 7
55 11 33 5 83 15 185 39 38 9 150 44 160 50 5 3 19 8 29 10 11 2 66 22 123 45
267 107 539 271 753 453 87 75 300 288 340 342 17 22 36 46 43 53 21 23 147
202 191 272 79 126 215 415 257 550 31 97 63 207 70 245 5 22 9 42 9 45 2 6
16 76 22 105 2 11 6 36 8 55 3 19 7 44 10 55 26 125 26 539 -1 730 -9 64 -54
288 -63 315 -9 25 -44 140 -46 150 -25 120 -192 468 -313 649 -72 109 -120
173 -221 296 -65 79 -329 329 -395 374 -12 8 -23 18 -26 22 -7 9 -208 143
-255 169 -106 60 -236 130 -241 130 -3 0 -29 11 -57 24 -50 22 -241 96 -262
100 -5 2 -28 8 -50 14 -22 6 -42 11 -45 11 -3 0 -17 4 -33 10 -15 6 -38 13
-50 15 -12 3 -54 11 -92 20 -119 25 -132 27 -305 46 -66 7 -445 11 -452 5z"/>
<path d="M2468 17325 c-2 -2 -25 -6 -51 -9 -27 -4 -85 -20 -130 -36 -175 -64
-160 -51 -965 -854 -409 -408 -765 -768 -791 -801 -64 -79 -118 -178 -148
-273 -37 -114 -41 -295 -9 -412 32 -118 93 -243 154 -310 8 -8 878 -880 1934
-1936 l1921 -1921 1 -1894 c1 -1788 3 -1897 19 -1949 57 -176 103 -255 205
-359 117 -118 266 -196 422 -222 71 -12 5120 -16 5220 -5 215 25 413 143 541
321 38 52 98 169 104 201 2 10 4 19 5 19 3 0 9 31 22 110 11 64 14 441 13
1929 l0 1848 913 912 c502 501 917 911 922 911 20 0 1830 -1819 1831 -1840 0
-11 2 -857 3 -1880 2 -1348 6 -1874 14 -1910 6 -27 14 -61 16 -74 11 -49 97
-208 144 -266 126 -153 329 -264 517 -282 72 -6 5108 -5 5177 1 166 17 355
111 474 238 82 88 148 205 185 328 l22 75 2 1898 c2 1575 4 1900 15 1907 15 9
3779 3770 3824 3820 84 95 138 200 176 345 26 97 21 291 -9 387 -26 81 -58
152 -88 195 -13 17 -23 34 -23 37 0 3 -12 21 -27 39 -62 72 -1482 1491 -1538
1535 -51 41 -148 104 -165 108 -3 0 -18 6 -35 13 -82 34 -182 53 -279 54 -92
0 -121 -2 -195 -18 -87 -17 -220 -81 -290 -140 -64 -53 -183 -170 -1286 -1272
l-1180 -1179 -2177 1 -2177 0 -1199 1200 c-660 661 -1222 1220 -1249 1243 -79
66 -220 131 -344 158 -58 13 -215 11 -282 -3 -96 -20 -204 -64 -285 -116 -50
-32 -382 -359 -1286 -1263 l-1218 -1219 -2177 -1 -2176 -1 -1220 1218 c-671
670 -1239 1232 -1263 1249 -83 59 -227 121 -317 136 -33 6 -213 13 -217 9z"/>
</g>
</svg>
