<?xml version="1.0" standalone="no"?>
<!DOCTYPE svg PUBLIC "-//W3C//DTD SVG 20010904//EN"
 "http://www.w3.org/TR/2001/REC-SVG-20010904/DTD/svg10.dtd">
<svg version="1.0" xmlns="http://www.w3.org/2000/svg"
 width="512.000000pt" height="512.000000pt" viewBox="0 0 512.000000 512.000000"
 preserveAspectRatio="xMidYMid meet">
<metadata>
Created by potrace 1.11, written by Peter Selinger 2001-2013
</metadata>
<g transform="translate(0.000000,512.000000) scale(0.100000,-0.100000)"
fill="#000000" stroke="none">
<path d="M1745 3566 c-71 -18 -126 -48 -182 -103 -79 -78 -114 -163 -114 -276
0 -124 57 -231 163 -310 66 -49 119 -67 209 -71 174 -9 339 113 384 284 14 55
13 166 -3 215 -38 121 -143 222 -268 259 -42 13 -140 13 -189 2z"/>
<path d="M3195 3564 c-198 -47 -323 -239 -286 -441 36 -191 201 -326 388 -317
117 6 199 44 275 128 39 43 81 120 93 171 13 56 6 162 -14 214 -71 186 -263
290 -456 245z"/>
<path d="M1073 3097 c-43 -13 -268 -241 -275 -279 -12 -61 12 -91 295 -372
l275 -274 0 -275 c0 -170 5 -283 11 -295 6 -10 23 -28 38 -38 26 -18 52 -19
418 -19 288 0 396 3 411 12 49 28 54 61 54 348 l0 267 130 130 130 131 130
-131 130 -130 0 -266 c0 -292 4 -318 56 -347 25 -14 78 -16 399 -16 251 -1
381 3 405 11 21 7 41 23 53 43 17 29 18 57 19 303 l0 272 278 278 c287 286
303 306 292 370 -3 15 -54 75 -131 151 -136 136 -161 150 -220 122 -16 -8
-107 -93 -202 -188 l-173 -174 -308 0 -309 1 -184 182 c-101 101 -192 183
-202 184 -44 5 -68 1 -92 -15 -14 -9 -101 -92 -193 -184 l-167 -168 -310 1
-310 0 -139 142 c-238 240 -242 243 -309 223z"/>
</g>
</svg>
