<svg viewBox="0 0 100 100" xmlns="http://www.w3.org/2000/svg"><style><![CDATA[@keyframes s1{0%{opacity:1}6.66%{opacity:0}}@keyframes s2{6.66%{opacity:1}13.33%{opacity:0}}@keyframes s3{13.33%{opacity:1}20%{opacity:0}}@keyframes s4{20%{opacity:1}26.66%{opacity:0}}@keyframes s5{26.66%{opacity:1}33.33%{opacity:0}}@keyframes s6{33.33%{opacity:1}40%{opacity:0}}@keyframes s7{40%{opacity:1}46.66%{opacity:0}}@keyframes s8{46.66%{opacity:1}53.33%{opacity:0}}@keyframes s9{53.33%{opacity:1}60%{opacity:0}}@keyframes sa{60%{opacity:1}66.66%{opacity:0}}@keyframes sb{66.66%{opacity:1}73.33%{opacity:0}}@keyframes sc{73.33%{opacity:1}80%{opacity:0}}@keyframes sd{80%{opacity:1}86.66%{opacity:0}}@keyframes se{86.66%{opacity:1}93.33%{opacity:0}}@keyframes sf{93.33%{opacity:1}to{opacity:0}}.b{fill:#000}.r{fill:#f80000}.g{fill:#00f800}.o{fill:#ff8100}.y{fill:#ffbf00}.bl{fill:#0000f8}.p{fill:#a800f8}.c{fill:#00f8f8}.s>*{opacity:0;animation-duration:2.00912475s;animation-iteration-count:infinite;animation-timing-function:steps(1)}.s>:nth-child(1){animation-name:s1}.s>:nth-child(2){animation-name:s2}.s>:nth-child(3){animation-name:s3}.s>:nth-child(4){animation-name:s4}.s>:nth-child(5){animation-name:s5}.s>:nth-child(6){animation-name:s6}.s>:nth-child(7){animation-name:s7}.s>:nth-child(8){animation-name:s8}.s>:nth-child(9){animation-name:s9}.s>:nth-child(10){animation-name:sa}.s>:nth-child(11){animation-name:sb}.s>:nth-child(12){animation-name:sc}.s>:nth-child(13){animation-name:sd}.s>:nth-child(14){animation-name:se}.s>:nth-child(15){animation-name:sf}]]></style><g class="s"><g><path class="b" d="M10 10h80v80H10z"/><path class="r" d="M20 20h60v60H20z"/></g><g><path class="b" d="M0 10h100v80H0z"/><path class="r" d="M10 20h40v60H10z"/><path class="g" d="M50 20h40v60H50z"/></g><g><path class="b" d="M10 10h80v80H10z"/><path class="g" d="M20 20h60v60H20z"/></g><g><path class="b" d="M0 10h100v80H0z"/><path class="g" d="M10 20h40v60H10z"/><path class="o" d="M50 20h40v60H50z"/></g><g><path class="b" d="M10 10h80v80H10z"/><path class="o" d="M20 20h60v60H20z"/></g><g><path class="b" d="M0 10h100v80H0z"/><path class="o" d="M10 20h40v60H10z"/><path class="y" d="M50 20h40v60H50z"/></g><g><path class="b" d="M10 10h80v80H10z"/><path class="y" d="M20 20h60v60H20z"/></g><g><path class="b" d="M0 10h100v80H0z"/><path class="y" d="M10 20h40v60H10z"/><path class="r" d="M50 20h40v60H50z"/></g><g><path class="b" d="M10 0h80v100H10z"/><path class="r" d="M20 10h60v40H20z"/><path class="bl" d="M20 50h60v40H20z"/></g><g><path class="b" d="M10 10h80v80H10z"/><path class="bl" d="M20 20h60v60H20z"/></g><g><path class="b" d="M10 0h80v100H10z"/><path class="bl" d="M20 10h60v40H20z"/><path class="p" d="M20 50h60v40H20z"/></g><g><path class="b" d="M10 10h80v80H10z"/><path class="p" d="M20 20h60v60H20z"/></g><g><path class="b" d="M10 0h80v100H10z"/><path class="p" d="M20 10h60v40H20z"/><path class="c" d="M20 50h60v40H20z"/></g><g><path class="b" d="M10 10h80v80H10z"/><path class="c" d="M20 20h60v60H20z"/></g><g><path class="b" d="M10 0h80v100H10z"/><path class="c" d="M20 10h60v40H20z"/><path class="r" d="M20 50h60v40H20z"/></g></g></svg>
