<svg viewBox="0 0 100 100" xmlns="http://www.w3.org/2000/svg"><style><![CDATA[@keyframes shapes-1{0%{opacity:1}6.6666666667%{opacity:0}}@keyframes shapes-2{6.6666666667%{opacity:1}13.3333333333%{opacity:0}}@keyframes shapes-3{13.3333333333%{opacity:1}20%{opacity:0}}@keyframes shapes-4{20%{opacity:1}26.6666666667%{opacity:0}}@keyframes shapes-5{26.6666666667%{opacity:1}33.3333333333%{opacity:0}}@keyframes shapes-6{33.3333333333%{opacity:1}40%{opacity:0}}@keyframes shapes-7{40%{opacity:1}46.6666666667%{opacity:0}}@keyframes shapes-8{46.6666666667%{opacity:1}53.3333333333%{opacity:0}}@keyframes shapes-9{53.3333333333%{opacity:1}60%{opacity:0}}@keyframes shapes-10{60%{opacity:1}66.6666666667%{opacity:0}}@keyframes shapes-11{66.6666666667%{opacity:1}73.3333333333%{opacity:0}}@keyframes shapes-12{73.3333333333%{opacity:1}80%{opacity:0}}@keyframes shapes-13{80%{opacity:1}86.6666666667%{opacity:0}}@keyframes shapes-14{86.6666666667%{opacity:1}93.3333333333%{opacity:0}}@keyframes shapes-15{93.3333333333%{opacity:1}to{opacity:0}}.black{fill:#000}.red{fill:#f80000}.green{fill:#00f800}.orange{fill:#ff8100}.yellow{fill:#ffbf00}.blue{fill:#0000f8}.purple{fill:#a800f8}.cyan{fill:#00f8f8}.shapes>*{opacity:0;animation-duration:2.00912475s;animation-iteration-count:infinite;animation-timing-function:steps(1)}.shapes>:nth-child(1){animation-name:shapes-1}.shapes>:nth-child(2){animation-name:shapes-2}.shapes>:nth-child(3){animation-name:shapes-3}.shapes>:nth-child(4){animation-name:shapes-4}.shapes>:nth-child(5){animation-name:shapes-5}.shapes>:nth-child(6){animation-name:shapes-6}.shapes>:nth-child(7){animation-name:shapes-7}.shapes>:nth-child(8){animation-name:shapes-8}.shapes>:nth-child(9){animation-name:shapes-9}.shapes>:nth-child(10){animation-name:shapes-10}.shapes>:nth-child(11){animation-name:shapes-11}.shapes>:nth-child(12){animation-name:shapes-12}.shapes>:nth-child(13){animation-name:shapes-13}.shapes>:nth-child(14){animation-name:shapes-14}.shapes>:nth-child(15){animation-name:shapes-15}]]></style><g class="shapes"><g class="square"><path class="outline black" d="M10 10h80v80H10z"/><path class="main red" d="M20 20h60v60H20z"/></g><g class="horizontal"><path class="outline black" d="M0 10h100v80H0z"/><path class="left red" d="M10 20h40v60H10z"/><path class="right green" d="M50 20h40v60H50z"/></g><g class="square"><path class="outline black" d="M10 10h80v80H10z"/><path class="main green" d="M20 20h60v60H20z"/></g><g class="horizontal"><path class="outline black" d="M0 10h100v80H0z"/><path class="left green" d="M10 20h40v60H10z"/><path class="right orange" d="M50 20h40v60H50z"/></g><g class="square"><path class="outline black" d="M10 10h80v80H10z"/><path class="main orange" d="M20 20h60v60H20z"/></g><g class="horizontal"><path class="outline black" d="M0 10h100v80H0z"/><path class="left orange" d="M10 20h40v60H10z"/><path class="right yellow" d="M50 20h40v60H50z"/></g><g class="square"><path class="outline black" d="M10 10h80v80H10z"/><path class="main yellow" d="M20 20h60v60H20z"/></g><g class="horizontal"><path class="outline black" d="M0 10h100v80H0z"/><path class="left yellow" d="M10 20h40v60H10z"/><path class="right red" d="M50 20h40v60H50z"/></g><g class="vertical"><path class="outline black" d="M10 0h80v100H10z"/><path class="top red" d="M20 10h60v40H20z"/><path class="bottom blue" d="M20 50h60v40H20z"/></g><g class="square"><path class="outline black" d="M10 10h80v80H10z"/><path class="main blue" d="M20 20h60v60H20z"/></g><g class="vertical"><path class="outline black" d="M10 0h80v100H10z"/><path class="top blue" d="M20 10h60v40H20z"/><path class="bottom purple" d="M20 50h60v40H20z"/></g><g class="square"><path class="outline black" d="M10 10h80v80H10z"/><path class="main purple" d="M20 20h60v60H20z"/></g><g class="vertical"><path class="outline black" d="M10 0h80v100H10z"/><path class="top purple" d="M20 10h60v40H20z"/><path class="bottom cyan" d="M20 50h60v40H20z"/></g><g class="square"><path class="outline black" d="M10 10h80v80H10z"/><path class="main cyan" d="M20 20h60v60H20z"/></g><g class="vertical"><path class="outline black" d="M10 0h80v100H10z"/><path class="top cyan" d="M20 10h60v40H20z"/><path class="bottom red" d="M20 50h60v40H20z"/></g></g></svg>